# xmcd CD database file
#
# Track frame offsets:
#	187
#	15637
#	29512
#	49987
#	68362
#	83962
#	104137
#	121162
#	143287
#	161137
#	176887
#	194962
#	210112
#	225187
#	241987
#	263512
#	281587
#	301087
#
# Disc length: 4272 seconds
#
# Revision: 0
# Processed by: cddbd v1.5PL3 Copyright (c) Steve Scherf et al.
# Submitted via: CDex 1.51
#
DISCID=ef10ae12
DTITLE=小椋佳 - 大全集 I [CD9)
DYEAR=1991
DGENRE=Folk
TTITLE0=御伽噺を
TTITLE1=夢芝居
TTITLE2=花遊戯
TTITLE3=冬木立
TTITLE4=忍ぶ草
TTITLE5=古城の月
TTITLE6=萌(きざし)
TTITLE7=夢のかよい路
TTITLE8=あほうどり
TTITLE9=愛しき日々
TTITLE10=泣かせて
TTITLE11=紫のドレス
TTITLE12=まだ乾かない油絵の
TTITLE13=秋の一日
TTITLE14=憧れ遊び
TTITLE15=遥かな轍
TTITLE16=流氷の街
TTITLE17=演歌みたいな別れでも
EXTD=YEAR: 1991
EXTT0=
EXTT1=
EXTT2=
EXTT3=
EXTT4=
EXTT5=
EXTT6=
EXTT7=
EXTT8=
EXTT9=
EXTT10=
EXTT11=
EXTT12=
EXTT13=
EXTT14=
EXTT15=
EXTT16=
EXTT17=
PLAYORDER=
